<svg xmlns="http://www.w3.org/2000/svg" width="600" height="600" viewBox="0 0 600 600" role="img" aria-labelledby="title"><title id="title">Agent Lighthouse</title><rect width="600" height="600" rx="48" fill="#ffffff"/><g transform="translate(156 64) scale(1.125)">  <rect width="256" height="256" rx="56" fill="#4f46e5"/>
  <g transform="translate(-5.5 5)">
  <!-- The open A and tapered I share a baseline. -->
  <path d="M48 185 87 91h17l39 94h-24l-8-21H80l-8 21Zm39-41h17l-8.5-24Z" fill="#fff" fill-rule="evenodd"/>
  <path d="M158 112h20l11 73h-42Z" fill="#fff"/>
  <path d="M148 104h40" stroke="#fff" stroke-width="8" stroke-linecap="round"/>
  <!-- The dot of the I is the beacon, not an extra AI sparkle. -->
  <circle cx="168" cy="78" r="12" fill="#fff"/>
  <path d="m144 73-33-12v26l33-4Zm48 0 27-12v26l-27-4Z" fill="#c7d2fe"/>
  </g>
</g><g font-family="Avenir Next, Segoe UI, sans-serif" fill="#101828"><text x="300" y="432" text-anchor="middle" font-size="40" font-weight="500" letter-spacing="-1">Agent</text><text x="300" y="498" text-anchor="middle" font-size="64" font-weight="750" letter-spacing="-2.5">Lighthouse</text></g></svg>